<svg xmlns="http://www.w3.org/2000/svg" viewBox="0 0 500 100">
	<g class="signage-logo" opacity="1">
		<g id="SvgjsG1025" opacity="1">
			<g id="SvgjsG1027" class="XHv9tOAjY" light-content="false" fill="#5a5a5a" bx:origin="0.53119 0.5">
				<path d="M0 0 h 212.7298115435838 v 4 h -212.7298115435838 Z M0 0 h 4 v 93.73961524945533 h -4 Z M212.7298115435838 93.73961524945533 h -212.7298115435838 v -4 h 212.7298115435838 Z M212.7298115435838 93.73961524945533 h -4 v -93.73961524945533 h 4 Z" fill-rule="nonzero">
				</path>
			</g>
			<g id="SvgjsG1028" class="text" light-content="false" fill="#5a5a5a">
				<path d="M 16.895 76.85 L 22.805 76.85 L 22.805 49.07 L 51.005 49.07 L 51.005 44.17 L 22.805 44.17 L 22.805 22.13 L 56.245 22.13 L 56.245 16.89 L 16.895 16.89 Z M 66.635 76.85 L 72.545 76.85 L 72.545 16.89 L 66.635 16.89 Z M 87.575 76.85 L 128.115 76.85 L 128.115 71.61 L 93.485 71.61 L 93.485 16.89 L 87.575 16.89 Z M 189.925 76.85 L 195.835 76.85 L 195.835 16.89 L 189.845 16.89 L 166.285 57.93 L 142.885 16.89 L 136.805 16.89 L 136.805 76.85 L 142.725 76.85 L 142.725 27.62 L 164.595 65.7 L 168.055 65.7 L 189.925 27.62 Z">
				</path>
			</g>
			<g id="SvgjsG1029" class="text" light-content="false" fill="#1a1a1a">
				<path d="M 222.73 67.288 L 222.73 77.678 L 270.28 77.678 L 270.28 65.518 L 240.22 65.518 L 269.94 28.108 L 269.94 17.718 L 223.92 17.718 L 223.92 29.878 L 253.98 29.878 Z">
				</path>
				<path d="M 321.659 59.779 C 324.884 58.994 329.464 58.031 334.258 57.517 C 334.476 56.423 334.593 55.306 334.593 54.168 C 334.593 53.742 334.576 53.318 334.544 52.898 L 334.544 46.816 C 332.299 52.121 327.7 56.66 321.659 59.779 Z">
				</path>
				<path class="coil" d="M 302.438 62.779 C 320.198 62.779 334.594 52.32 334.594 39.419 C 334.594 26.518 320.198 16.061 302.438 16.061 C 284.679 16.061 270.283 26.519 270.283 39.419 C 270.282 52.32 284.679 62.779 302.438 62.779 Z M 275.62 39.418 C 275.62 35.662 279.811 32.618 284.98 32.618 C 290.15 32.618 294.341 35.663 294.341 39.418 C 294.341 43.173 290.15 46.218 284.98 46.218 C 279.81 46.218 275.62 43.173 275.62 39.418 Z M 329.257 39.418 C 329.257 43.173 325.065 46.218 319.895 46.218 C 314.725 46.218 310.534 43.173 310.534 39.418 C 310.534 35.662 314.725 32.618 319.895 32.618 C 325.065 32.618 329.257 35.663 329.257 39.418 Z M 293.076 52.101 C 293.076 48.346 297.268 45.3 302.436 45.3 C 307.606 45.3 311.797 48.346 311.797 52.101 C 311.797 55.857 307.606 58.9 302.436 58.9 C 297.267 58.9 293.076 55.857 293.076 52.101 Z M 300.052 39.418 C 300.052 38.461 301.121 37.686 302.438 37.686 C 303.756 37.686 304.825 38.461 304.825 39.418 C 304.825 40.375 303.756 41.152 302.438 41.152 C 301.121 41.152 300.052 40.376 300.052 39.418 Z M 311.798 26.738 C 311.798 30.493 307.606 33.538 302.437 33.538 C 297.268 33.538 293.077 30.493 293.077 26.738 C 293.077 22.982 297.269 19.938 302.437 19.938 C 307.606 19.937 311.798 22.982 311.798 26.738 Z">
				</path>
				<path d="M 336.519 58.308 C 327.88 59.142 317.005 61.872 312.235 63.175 C 309.019 63.895 305.733 64.257 302.438 64.253 C 287.367 64.253 274.579 56.894 270.318 46.787 L 270.318 53.126 C 270.297 53.472 270.282 53.819 270.282 54.168 C 270.282 67.07 284.678 77.46 302.438 77.528 C 308.764 77.552 313.387 76.14 318.467 74.415 C 336.181 69.783 348.306 70.409 356.997 76.051 L 356.997 62.874 C 348.306 57.232 340.801 57.895 336.519 58.308 Z">
				</path>
				<path d="M 370.847 41.741 L 398.487 76.051 L 409.637 76.051 L 409.637 16.061 L 395.777 16.061 L 395.777 51.291 L 367.807 16.061 L 356.997 16.061 L 356.997 76.051 L 370.847 76.051 Z M 471.737 63.881 L 443.437 63.881 L 443.437 51.121 L 467.097 51.121 L 467.097 39.891 L 443.437 39.891 L 443.437 28.221 L 470.977 28.221 L 470.977 16.061 L 429.577 16.061 L 429.577 76.051 L 471.737 76.051 Z">
				</path>
			</g>
		</g>
	</g>
</svg>