<svg xmlns="http://www.w3.org/2000/svg" style="display: none;">
<symbol id="arrow--mobile" viewBox="0 0 492.004 492.004"><title>right-arrow</title><path d="M484.14,226.886L306.46,49.202c-5.072-5.072-11.832-7.856-19.04-7.856c-7.216,0-13.972,2.788-19.044,7.856l-16.132,16.136 c-5.068,5.064-7.86,11.828-7.86,19.04c0,7.208,2.792,14.2,7.86,19.264L355.9,207.526H26.58C11.732,207.526,0,219.15,0,234.002 v22.812c0,14.852,11.732,27.648,26.58,27.648h330.496L252.248,388.926c-5.068,5.072-7.86,11.652-7.86,18.864 c0,7.204,2.792,13.88,7.86,18.948l16.132,16.084c5.072,5.072,11.828,7.836,19.044,7.836c7.208,0,13.968-2.8,19.04-7.872 l177.68-177.68c5.084-5.088,7.88-11.88,7.86-19.1C492.02,238.762,489.228,231.966,484.14,226.886z"/></symbol>
<symbol id="arrow" viewBox="0 0 240.823 240.823"><title>next</title><path id="Chevron_Right_1_" d="M183.189,111.816L74.892,3.555c-4.752-4.74-12.451-4.74-17.215,0c-4.752,4.74-4.752,12.439,0,17.179 l99.707,99.671l-99.695,99.671c-4.752,4.74-4.752,12.439,0,17.191c4.752,4.74,12.463,4.74,17.215,0l108.297-108.261 C187.881,124.315,187.881,116.495,183.189,111.816z"/></symbol>
</svg>