<svg id="logo" viewBox="0 0 500 100" xmlns="http://www.w3.org/2000/svg"><g class="signage-logo"><path d="M0 0h225.5v4.267H0zm0 0h4.24v100H0zm225.5 100H0v-4.267h225.5zm0 0h-4.24V0h4.24z" id="SvgjsG1027" fill="#5a5a5a"/><path d="M17.907 81.982h6.264V52.347h29.89V47.12h-29.89V23.608h35.444v-5.59H17.907zm52.72 0h6.264V18.018h-6.264zm22.195 0h42.969v-5.59H99.086V18.018h-6.264zm108.482 0h6.264V18.018h-6.349l-24.971 43.781-24.802-43.781h-6.445v63.964h6.275V29.465l23.18 40.623h3.668l23.18-40.623z" id="SvgjsG1028" fill="#5a5a5a"/><g id="SvgjsG1029" class="text" fill="#1a1a1a"><path d="M236.074 71.782v11.084h50.399V69.894h-31.861l31.501-39.909V18.901h-48.777v12.972h31.861zm104.857-8.011c3.418-.837 8.272-1.864 13.353-2.413a18.358 18.358 0 00.304-4.927v-6.488c-2.38 5.659-7.255 10.501-13.657 13.828z"/><path fill="currentColor" d="M320.558 66.972c18.824 0 34.083-11.158 34.083-24.92 0-13.763-15.259-24.918-34.083-24.918-18.823 0-34.082 11.156-34.082 24.918-.001 13.762 15.259 24.92 34.082 24.92zm-28.425-24.921c0-4.007 4.442-7.255 9.921-7.255 5.48 0 9.922 3.249 9.922 7.255 0 4.005-4.442 7.254-9.922 7.254s-9.921-3.249-9.921-7.254zm56.851 0c0 4.005-4.443 7.254-9.923 7.254s-9.922-3.249-9.922-7.254c0-4.007 4.442-7.255 9.922-7.255s9.923 3.249 9.923 7.255zm-38.349 13.53c0-4.006 4.443-7.256 9.921-7.256 5.48 0 9.922 3.25 9.922 7.256s-4.442 7.253-9.922 7.253c-5.479 0-9.921-3.247-9.921-7.253zm7.394-13.53c0-1.021 1.133-1.848 2.529-1.848 1.397 0 2.53.827 2.53 1.848 0 1.02-1.133 1.849-2.53 1.849-1.396 0-2.529-.827-2.529-1.849zm12.45-13.527c0 4.005-4.443 7.254-9.922 7.254-5.479 0-9.921-3.249-9.921-7.254 0-4.007 4.443-7.254 9.921-7.254 5.479-.002 9.922 3.247 9.922 7.254z"/><path d="M356.681 62.202c-9.157.89-20.683 3.802-25.739 5.192a47.004 47.004 0 01-10.384 1.15c-15.974 0-29.528-7.85-34.044-18.632v6.762a17.85 17.85 0 00-.039 1.112c0 13.763 15.259 24.847 34.083 24.92 6.705.025 11.605-1.481 16.989-3.321 18.776-4.942 31.627-4.274 40.839 1.745V67.073c-9.212-6.019-17.167-5.311-21.705-4.871zm36.385-17.673l29.296 36.601h11.818V17.134h-14.691v37.582l-29.646-37.582h-11.457V81.13h14.68zM500 68.147h-29.995V54.535h25.077v-11.98h-25.077V30.106h29.19V17.134h-43.881V81.13H500z"/></g></g></svg>