<svg xmlns="http://www.w3.org/2000/svg" style="display: none;"><symbol id="playPause" viewBox="0 0 45.974 45.975"><title>play-and-pause-button</title><g> <path d="M9.629,44.68c-1.154,1.16-2.895,1.51-4.407,0.885c-1.513-0.623-2.5-2.1-2.5-3.735V4.043c0-1.637,0.987-3.112,2.5-3.736 c1.513-0.625,3.253-0.275,4.407,0.885l17.862,17.951c2.088,2.098,2.088,5.488,0,7.585L9.629,44.68z"/> </g><g> <g> <path d="M38.252,45.975c-2.763,0-5-2.238-5-5V5c0-2.762,2.237-5,5-5c2.762,0,5,2.238,5,5v35.975 C43.252,43.736,41.013,45.975,38.252,45.975z"/> </g> </g></symbol><symbol id="hot" viewBox="0 0 511.269 511.269"><title>flame</title><path style="fill:currentColor;" d="M140.367,465.067C116.9,438.4,93.434,410.667,78.5,377.6c-14.933-35.2-19.2-75.733-11.733-114.133 s24.533-74.667,49.067-105.6c-2.133,26.667,7.467,54.4,25.6,74.667c-10.667-51.2,6.4-106.667,40.533-147.2S263.034,18.133,312.1,0 c-24.533,25.6-27.733,66.133-18.133,100.267c9.6,34.133,29.867,64,48,94.933c18.133,30.933,35.2,62.933,36.267,98.133 c9.6-18.133,20.267-36.267,26.667-56.533c6.4-20.267,9.6-41.6,4.267-61.867c19.2,23.467,29.867,46.933,35.2,76.8 c5.333,29.867,4.267,60.8,1.067,90.667c-4.267,33.067-12.8,67.2-30.933,94.933c-21.333,33.067-55.467,56.533-92.8,69.333 C255.567,518.4,190.5,508.8,140.367,465.067z"/><path d="M221.434,504.533C308.9,538.667,395.3,435.2,347.3,355.2c0-1.067-1.067-1.067-1.067-2.133 c4.267,43.733-6.4,75.733-26.667,93.867c10.667-25.6,3.2-55.467-9.6-81.067c-12.8-24.533-30.933-46.933-44.8-70.4 c-13.867-24.533-24.533-52.267-18.133-80c-25.6,19.2-43.733,48-51.2,78.933c-7.467,30.933-3.2,65.067,10.667,93.867 c-16-11.733-27.733-30.933-28.8-51.2c-17.067,20.267-27.733,46.933-26.667,73.6C151.034,452.267,184.1,489.6,221.434,504.533z"/></symbol><symbol id="new" viewBox="0 0 490.688 490.688"><title>new</title><path d="M462.784,209.077c-7.552-5.568-17.067-12.523-18.219-17.067c0.484-8.796,2.996-17.36,7.339-25.024 c6.656-15.275,13.525-31.104,5.888-44.267c-7.637-13.163-25.003-15.296-41.707-17.067c-8.658-0.058-17.188-2.094-24.939-5.952 c-3.864-7.778-5.893-16.339-5.931-25.024c-1.877-16.704-3.819-33.984-17.067-41.707c-13.248-7.723-29.099-0.96-44.373,5.781 c-7.672,4.341-16.243,6.852-25.045,7.339c-4.608-1.237-11.541-10.667-17.067-18.219c-9.685-13.056-20.587-27.861-36.331-27.861 s-26.645,14.805-36.267,27.861c-5.589,7.573-12.523,17.067-17.067,18.24c-8.794-0.53-17.356-3.038-25.045-7.339 c-15.36-6.763-31.189-13.504-44.309-5.909s-15.317,25.003-17.195,41.813c-0.061,8.655-2.089,17.183-5.931,24.939 c-7.736,3.803-16.233,5.801-24.853,5.845c-16.725,1.877-34.027,3.819-41.728,17.067S32,151.605,38.741,166.901 c4.357,7.689,6.869,16.284,7.339,25.109c-1.237,4.608-10.667,11.563-18.219,17.067C14.805,218.677,0,229.6,0,245.344 c0,15.744,14.805,26.667,27.883,36.267c7.552,5.568,17.067,12.523,18.219,17.067c-0.484,8.796-2.996,17.36-7.339,25.024 c-6.656,15.275-13.525,31.104-5.888,44.267c7.637,13.163,25.003,15.296,41.707,17.067c8.658,0.058,17.188,2.094,24.939,5.952 c3.864,7.778,5.893,16.339,5.931,25.024c1.877,16.704,3.819,33.984,17.067,41.707c13.248,7.723,28.971,0.768,44.267-5.888 c7.749-4.293,16.37-6.772,25.216-7.253c4.608,1.237,11.541,10.667,17.067,18.219c9.621,13.056,20.523,27.861,36.267,27.861 s26.645-14.805,36.267-27.861c5.589-7.573,12.523-17.067,17.067-18.24c8.8,0.498,17.368,3.008,25.045,7.339 c15.275,6.656,31.104,13.483,44.245,5.909c13.141-7.573,15.317-25.003,17.195-41.728c0.061-8.655,2.089-17.183,5.931-24.939 c7.75-3.834,16.271-5.855,24.917-5.909c16.725-1.877,34.027-3.819,41.728-17.067s0.747-28.971-5.888-44.267 c-4.343-7.728-6.826-16.362-7.253-25.216c1.237-4.608,10.667-11.563,18.219-17.067c13.056-9.621,27.883-20.544,27.883-36.267 S475.861,218.677,462.784,209.077z"/><g> <path style="fill:#000;" d="M181.333,298.677c-3.357,0-6.519-1.581-8.533-4.267L128,234.677v53.333 c0,5.891-4.776,10.667-10.667,10.667s-10.667-4.776-10.667-10.667v-85.333c0-5.891,4.776-10.667,10.667-10.667 c3.357,0,6.519,1.581,8.533,4.267l44.8,59.733v-53.333c0-5.891,4.776-10.667,10.667-10.667c5.891,0,10.667,4.776,10.667,10.667 v85.333c-0.003,4.589-2.942,8.662-7.296,10.112C183.618,298.49,182.48,298.677,181.333,298.677z"/> <path style="fill:#000;" d="M266.667,298.677H224c-5.891,0-10.667-4.776-10.667-10.667v-85.333 c0-5.891,4.776-10.667,10.667-10.667h42.667c5.891,0,10.667,4.776,10.667,10.667c0,5.891-4.776,10.667-10.667,10.667h-32v64h32 c5.891,0,10.667,4.776,10.667,10.667C277.333,293.902,272.558,298.677,266.667,298.677z"/> <path style="fill:#000;" d="M266.667,256.011H224c-5.891,0-10.667-4.776-10.667-10.667c0-5.891,4.776-10.667,10.667-10.667 h42.667c5.891,0,10.667,4.776,10.667,10.667C277.333,251.235,272.558,256.011,266.667,256.011z"/> <path style="fill:#000;" d="M373.333,298.677c-4.597,0.006-8.681-2.934-10.133-7.296L352,257.739l-11.2,33.643 c-1.363,4.603-5.751,7.633-10.539,7.275c-4.738-0.18-8.788-3.465-9.941-8.064l-21.333-85.333 c-1.426-5.72,2.056-11.513,7.776-12.939c5.72-1.426,11.513,2.056,12.939,7.776l12.437,49.792l9.749-29.248 c2.535-5.591,9.122-8.068,14.713-5.533c2.454,1.113,4.42,3.079,5.533,5.533l9.749,29.248l12.437-49.792 c1.426-5.72,7.218-9.202,12.939-7.776c5.72,1.426,9.202,7.218,7.776,12.939l-21.333,85.333c-1.153,4.599-5.204,7.884-9.941,8.064 L373.333,298.677z"/> </g><path style="fill:#000;" d="M245.333,490.677c-15.744,0-26.667-14.805-36.267-27.883c-5.568-7.552-12.523-17.067-17.067-18.219 c-8.8,0.459-17.37,2.972-25.024,7.339c-15.296,6.656-31.125,13.547-44.288,5.888s-15.275-25.003-17.067-41.707 c-0.062-8.664-2.098-17.2-5.952-24.96c-7.777-3.844-16.328-5.865-25.003-5.909c-16.725-1.877-34.005-3.819-41.728-17.195 S32,339.061,38.741,323.787c4.356-7.691,6.875-16.284,7.36-25.109c-1.237-4.608-10.667-11.541-18.24-17.067 C14.805,271.989,0,261.067,0,245.344s14.805-26.645,27.861-36.267c7.573-5.589,17.067-12.523,18.219-17.067 c-0.481-8.803-2.993-17.375-7.339-25.045c-6.741-15.36-13.504-31.168-5.888-44.331s25.003-15.296,41.813-17.173 c8.658-0.058,17.188-2.094,24.939-5.952c3.805-7.727,5.804-16.219,5.845-24.832c1.877-16.704,3.819-34.005,17.067-41.707 c13.248-7.701,29.056-0.96,44.373,5.781c7.674,4.391,16.278,6.906,25.109,7.339c4.608-1.237,11.563-10.667,17.067-18.219 c9.6-13.056,20.523-27.861,36.267-27.861S272,14.816,281.6,27.893c5.568,7.552,12.523,17.067,17.067,18.219 c8.804-0.437,17.379-2.952,25.024-7.339c15.253-6.635,31.083-13.611,44.267-5.888s15.296,25.003,17.067,41.728 c0.064,8.657,2.1,17.186,5.952,24.939c7.783,3.847,16.342,5.868,25.024,5.909c16.725,1.877,34.005,3.819,41.728,17.195 s0.939,28.971-5.803,44.245c-4.356,7.691-6.875,16.284-7.36,25.109c1.237,4.608,10.667,11.541,18.24,17.067 c13.056,9.621,27.861,20.544,27.861,36.267s-14.805,26.645-27.861,36.267c-7.573,5.589-17.067,12.523-18.219,17.067 c0.481,8.803,2.993,17.375,7.339,25.045c6.656,15.296,13.525,31.104,5.888,44.267s-25.003,15.296-41.728,17.067 c-8.658,0.058-17.188,2.094-24.939,5.952c-3.855,7.774-5.883,16.326-5.931,25.003c-1.877,16.725-3.819,34.027-17.067,41.728 c-13.248,7.701-28.992,0.725-44.267-5.888c-7.715-4.374-16.356-6.859-25.216-7.253c-4.608,1.237-11.563,10.667-17.067,18.219 C272,475.872,261.077,490.677,245.333,490.677z M190.016,423.029c2.505-0.012,5.001,0.304,7.424,0.939 c12.134,5.407,22.198,14.588,28.693,26.176c5.632,7.637,14.144,19.2,19.2,19.2c5.056,0,13.461-11.541,19.2-19.2 c6.514-11.609,16.61-20.8,28.779-26.197c13.585-1.469,27.283,1.478,39.061,8.405c8.533,3.669,21.184,9.237,25.067,6.997 c3.883-2.24,5.611-16.363,6.656-25.6c-0.162-13.518,4.068-26.724,12.053-37.632c10.919-7.984,24.128-12.22,37.653-12.075 c9.28-1.045,23.296-2.603,25.6-6.656s-3.328-16.619-6.997-25.088c-6.95-11.762-9.892-25.462-8.384-39.04 c5.381-12.136,14.54-22.209,26.112-28.715c7.637-5.632,19.2-14.144,19.2-19.2c0-5.056-11.541-13.461-19.2-19.093 c-11.616-6.525-20.807-16.637-26.197-28.821c-1.497-13.577,1.444-27.274,8.384-39.04c3.669-8.533,9.237-21.333,6.997-25.067 c-2.24-3.733-16.363-5.632-25.6-6.656c-13.525,0.163-26.738-4.066-37.653-12.053c-7.991-10.915-12.227-24.127-12.075-37.653 c-1.045-9.301-2.624-23.317-6.656-25.6c-4.032-2.283-16.619,3.328-25.067,6.997c-11.763,6.967-25.474,9.918-39.061,8.405 c-12.132-5.422-22.189-14.618-28.672-26.219c-5.632-7.637-14.144-19.2-19.2-19.2c-5.056,0-13.461,11.541-19.2,19.2 c-6.496,11.588-16.559,20.769-28.693,26.176c-13.587,1.509-27.297-1.441-39.061-8.405c-8.533-3.669-21.184-9.259-25.067-6.997 c-3.883,2.261-5.611,16.363-6.656,25.6c0.156,13.527-4.081,26.74-12.075,37.653c-10.918,7.985-24.128,12.221-37.653,12.075 c-9.28,1.045-23.296,2.603-25.6,6.656c-2.304,4.053,3.328,16.619,6.997,25.088c6.95,11.762,9.892,25.462,8.384,39.04 c-5.397,12.146-14.58,22.219-26.176,28.715c-7.637,5.632-19.2,14.144-19.2,19.2c0,5.056,11.541,13.461,19.2,19.093 c11.616,6.525,20.807,16.637,26.197,28.821c1.497,13.577-1.445,27.274-8.384,39.04c-3.669,8.533-9.237,21.333-6.997,25.067 c2.24,3.733,16.363,5.632,25.6,6.677c13.525-0.163,26.738,4.066,37.653,12.053c7.994,10.922,12.23,24.141,12.075,37.675 c1.024,9.28,2.603,23.296,6.635,25.6c4.032,2.304,16.619-3.328,25.088-6.997C168.226,427.22,178.967,424.045,190.016,423.029z"/><path style="fill:#000;" d="M181.333,298.677c-3.357,0-6.519-1.581-8.533-4.267L128,234.677v53.333c0,5.891-4.776,10.667-10.667,10.667 s-10.667-4.776-10.667-10.667v-85.333c0-5.891,4.776-10.667,10.667-10.667c3.357,0,6.519,1.581,8.533,4.267l44.8,59.733v-53.333 c0-5.891,4.776-10.667,10.667-10.667c5.891,0,10.667,4.776,10.667,10.667v85.333c0.006,4.597-2.934,8.681-7.296,10.133 C183.614,298.494,182.478,298.673,181.333,298.677z"/><path style="fill:#000;" d="M266.667,298.677H224c-5.891,0-10.667-4.776-10.667-10.667v-85.333c0-5.891,4.776-10.667,10.667-10.667h42.667 c5.891,0,10.667,4.776,10.667,10.667c0,5.891-4.776,10.667-10.667,10.667h-32v64h32c5.891,0,10.667,4.776,10.667,10.667 C277.333,293.902,272.558,298.677,266.667,298.677z"/><path style="fill:#000;" d="M266.667,256.011H224c-5.891,0-10.667-4.776-10.667-10.667c0-5.891,4.776-10.667,10.667-10.667h42.667 c5.891,0,10.667,4.776,10.667,10.667C277.333,251.235,272.558,256.011,266.667,256.011z"/><path style="fill:#000;" d="M373.333,298.677c-4.589-0.003-8.662-2.942-10.112-7.296L352,257.739l-11.221,33.643c-1.872,5.586-7.918,8.596-13.503,6.724 c-3.447-1.155-6.069-3.987-6.955-7.514l-21.333-85.333c-1.558-5.681,1.785-11.55,7.466-13.108c5.681-1.558,11.55,1.785,13.108,7.466 c0.044,0.159,0.083,0.318,0.12,0.479l12.459,49.792l9.749-29.248c2.519-5.585,9.089-8.07,14.674-5.55 c2.465,1.112,4.438,3.086,5.55,5.55l9.749,29.248l12.459-49.792c1.293-5.747,7.001-9.358,12.748-8.065 c5.747,1.293,9.358,7.001,8.065,12.748c-0.036,0.161-0.076,0.321-0.12,0.48l-21.333,85.333c-1.145,4.607-5.198,7.903-9.941,8.085 L373.333,298.677z"/></symbol><symbol id="like" viewBox="0 0 512 512"><title>thumb-up</title><rect style="fill:currentColor;" x="10.667" y="234.667" width="149.333" height="256"/><path style="fill:#000;" d="M160,501.333H10.667C4.776,501.333,0,496.558,0,490.667v-256C0,228.776,4.776,224,10.667,224H160 c5.891,0,10.667,4.776,10.667,10.667v256C170.667,496.558,165.891,501.333,160,501.333z M21.333,480h128V245.333h-128V480z"/><path d="M160,448c18.59,13.606,40.965,21.064,64,21.333h197.333c20.571,0.072,37.306-16.546,37.378-37.118 c0.036-10.343-4.23-20.236-11.778-27.309c20.37-2.201,35.1-20.499,32.899-40.869c-0.956-8.848-5.061-17.057-11.565-23.131 c20.373-2.177,35.124-20.458,32.946-40.831c-1.337-12.508-8.921-23.487-20.146-29.164c20.018-12.432,26.167-38.738,13.735-58.756 c-7.763-12.5-21.42-20.118-36.135-20.156H309.333c11.719-30.799,18.905-63.136,21.333-96c0-40-34.667-74.667-53.333-74.667 c-11.512,0.168-22.69,3.894-32,10.667v74.667l-64,138.667L160,256V448z"/><path style="fill:#000;" d="M421.333,480H224c-25.865-0.206-50.969-8.783-71.552-24.448c-1.999-2.004-3.12-4.721-3.115-7.552V256 c0-4.037,2.279-7.728,5.888-9.536l17.984-9.003l61.461-133.12V32c-0.007-3.242,1.461-6.312,3.989-8.341 c11.226-8.25,24.747-12.791,38.677-12.992c24.683,0,64,39.061,64,85.333c-1.612,29.11-7.359,57.842-17.067,85.333h134.4 c29.455,0,53.333,23.878,53.333,53.333c0.035,13.237-4.916,26.002-13.867,35.755c18.566,18.691,18.464,48.894-0.227,67.46 c-3.591,3.567-7.728,6.54-12.253,8.807c3.32,6.62,5.037,13.928,5.013,21.333c-0.02,18.056-10.212,34.561-26.347,42.667 c3.32,6.62,5.037,13.928,5.013,21.333C469.286,458.508,447.82,479.965,421.333,480z M170.667,443.115 c16.153,9.666,34.517,15.021,53.333,15.552h197.333C436.056,458.655,447.988,446.723,448,432c0.001-7.328-3.053-14.324-8.427-19.307 c-4.291-4.036-4.498-10.787-0.462-15.078c1.729-1.839,4.055-3.005,6.563-3.29c14.517-1.534,25.042-14.547,23.507-29.064 c-0.67-6.34-3.609-12.224-8.275-16.568c-4.291-4.036-4.498-10.787-0.462-15.078c1.729-1.839,4.055-3.005,6.563-3.29 c14.518-1.53,25.046-14.539,23.516-29.056c-0.946-8.98-6.411-16.856-14.492-20.885c-5.235-2.702-7.289-9.135-4.587-14.371 c0.889-1.724,2.232-3.172,3.883-4.189c14.999-9.347,19.581-29.083,10.234-44.082c-5.794-9.298-15.941-14.985-26.896-15.075H309.333 c-5.891-0.003-10.664-4.781-10.661-10.672c0.001-1.296,0.237-2.581,0.699-3.792C310.612,158.61,317.559,127.561,320,96 c0-34.944-30.976-64-42.667-64c-7.482,0.121-14.815,2.108-21.333,5.781v68.885c-0.002,1.546-0.336,3.074-0.981,4.48l-64,138.667 c-1.016,2.192-2.746,3.975-4.907,5.056l-15.445,7.723V443.115z"/><path style="fill:#000;" d="M160,501.333H10.667C4.776,501.333,0,496.558,0,490.667v-256C0,228.776,4.776,224,10.667,224H160 c5.891,0,10.667,4.776,10.667,10.667v256C170.667,496.558,165.891,501.333,160,501.333z M21.333,480h128V245.333h-128V480z"/><path style="fill:#000;" d="M421.333,480H224c-25.865-0.207-50.968-8.785-71.552-24.448c-4.093-4.237-3.975-10.99,0.262-15.083 c4.134-3.993,10.687-3.993,14.821,0c16.583,11.57,36.251,17.908,56.469,18.197h197.333C436.056,458.655,447.988,446.723,448,432 c-0.005-7.327-3.057-14.321-8.427-19.307c-4.291-4.036-4.498-10.787-0.462-15.078c1.729-1.839,4.055-3.005,6.563-3.29 c14.517-1.534,25.042-14.547,23.507-29.064c-0.67-6.34-3.609-12.224-8.275-16.568c-4.291-4.036-4.498-10.787-0.462-15.078 c1.729-1.839,4.055-3.005,6.563-3.29c14.519-1.52,25.056-14.522,23.536-29.041c-0.941-8.986-6.406-16.868-14.491-20.901 c-5.235-2.702-7.289-9.135-4.587-14.371c0.889-1.724,2.232-3.172,3.883-4.189c14.999-9.347,19.581-29.083,10.234-44.082 c-5.798-9.304-15.955-14.992-26.917-15.075H309.333c-5.891-0.003-10.664-4.781-10.661-10.672c0.001-1.296,0.237-2.581,0.699-3.792 C310.6,158.607,317.546,127.559,320,96c0-34.944-30.976-64-42.667-64c-7.482,0.121-14.815,2.108-21.333,5.781v68.885 c-0.002,1.546-0.336,3.074-0.981,4.48l-64,138.667c-1.016,2.192-2.746,3.975-4.907,5.056l-21.333,10.667 c-5.272,2.633-11.681,0.494-14.315-4.779s-0.494-11.681,4.779-14.315l17.984-9.003l61.44-133.099V32 c-0.002-3.246,1.474-6.316,4.011-8.341c11.221-8.244,24.733-12.786,38.656-12.992c24.683,0,64,39.061,64,85.333 c-1.607,29.111-7.354,57.844-17.067,85.333h134.4c29.455,0,53.333,23.878,53.333,53.333c0.033,13.237-4.918,26.001-13.867,35.755 c18.57,18.687,18.475,48.89-0.212,67.46c-3.589,3.567-7.723,6.54-12.246,8.807c11.72,23.569,2.183,52.177-21.333,64 c3.308,6.623,5.018,13.93,4.992,21.333C469.286,458.508,447.82,479.965,421.333,480z"/></symbol><symbol id="future" viewBox="0 0 512 512"><title>future</title><path xmlns="http://www.w3.org/2000/svg" d="M497,241c-8.284,0-15,6.716-15,15c0,124.617-101.383,226-226,226S30,380.617,30,256 S131.383,30,256,30c38.001,0,74.962,9.436,107.959,27.412l-18.753,18.754c-4.29,4.29-5.573,10.741-3.252,16.347 c2.322,5.605,7.791,9.26,13.858,9.26h71.773c8.284,0,15-6.716,15-15V15c0-6.067-3.654-11.536-9.26-13.858 c-5.603-2.318-12.057-1.039-16.347,3.252L385.963,35.41C346.675,12.213,302.004,0,256,0C187.62,0,123.333,26.629,74.981,74.981 S0,187.62,0,256s26.629,132.667,74.981,181.019S187.62,512,256,512s132.668-26.629,181.019-74.981 C485.371,388.667,512,324.38,512,256C512,247.716,505.284,241,497,241z"/><path d="M352.4,271H256c-8.284,0-15-6.716-15-15v-96.4c0-8.284,6.716-15,15-15s15,6.716,15,15V241h81.4 c8.284,0,15,6.716,15,15S360.685,271,352.4,271z"/><path  d="M363.959,57.412l-18.753,18.754c-4.29,4.29-5.573,10.741-3.252,16.347 c2.322,5.605,7.791,9.26,13.858,9.26h71.773c8.284,0,15-6.716,15-15V15c0-6.067-3.654-11.536-9.26-13.858 c-5.603-2.318-12.057-1.039-16.347,3.252L385.963,35.41C346.675,12.213,302.004,0,256,0v30 C294.001,30,330.962,39.436,363.959,57.412z"/><path d="M352.4,271c8.284,0,15-6.716,15-15s-6.716-15-15-15H271v-81.4c0-8.284-6.716-15-15-15V271H352.4z"/><path d="M497,241c-8.284,0-15,6.716-15,15c0,124.617-101.383,226-226,226v30 c68.38,0,132.668-26.629,181.019-74.981C485.371,388.667,512,324.38,512,256C512,247.716,505.284,241,497,241z"/></symbol></svg>